<?xml version="1.0" standalone="no"?>
<!DOCTYPE svg PUBLIC "-//W3C//DTD SVG 20010904//EN"
 "http://www.w3.org/TR/2001/REC-SVG-20010904/DTD/svg10.dtd">
<svg version="1.0" xmlns="http://www.w3.org/2000/svg"
 width="327.000000pt" height="102.000000pt" viewBox="0 0 327.000000 102.000000"
 preserveAspectRatio="xMidYMid meet">

<g transform="translate(0.000000,102.000000) scale(0.100000,-0.100000)"
fill="#000000" stroke="none">
<path d="M1842 864 c-144 -72 -269 -300 -279 -509 -4 -90 -2 -104 19 -145 48
-93 128 -113 236 -60 168 84 292 327 279 546 -5 89 -21 129 -67 168 -43 36
-116 36 -188 0z m102 -206 c47 -66 -21 -289 -104 -345 -43 -30 -94 -30 -114
-1 -42 59 7 237 85 317 55 55 107 66 133 29z"/>
<path d="M2720 883 c-14 -3 -28 -9 -31 -14 -3 -5 -21 -88 -40 -184 -19 -96
-37 -175 -40 -175 -6 0 -27 111 -52 280 l-13 85 -80 -4 c-43 -1 -80 -4 -80 -5
-1 0 -16 -86 -34 -191 -17 -104 -47 -270 -66 -369 -19 -98 -34 -180 -32 -182
2 -1 35 5 73 14 l69 17 22 110 c12 61 27 143 34 183 7 40 14 71 16 69 2 -2 13
-84 24 -183 11 -98 22 -182 23 -185 1 -3 39 2 83 13 l81 19 7 55 c6 51 109
582 122 632 6 20 3 22 -27 21 -19 -1 -45 -4 -59 -6z"/>
<path d="M862 865 c-73 -7 -134 -14 -136 -16 -3 -5 -135 -724 -133 -725 1 0
75 11 164 24 l162 25 7 54 c3 30 5 55 3 57 -2 2 -34 -1 -72 -7 -37 -6 -69 -8
-71 -6 -2 2 4 45 13 94 l16 90 73 3 c60 2 72 6 72 20 0 9 3 34 6 55 l7 37 -72
0 c-69 0 -71 1 -66 23 3 12 11 54 18 92 l13 70 76 3 76 3 15 59 15 60 -27 -1
c-14 -1 -86 -7 -159 -14z"/>
<path d="M1342 866 c-29 -8 -55 -16 -58 -19 -3 -3 -25 -106 -49 -229 -24 -123
-56 -280 -71 -351 -15 -70 -25 -130 -21 -133 6 -7 139 15 156 25 5 4 17 49 26
101 22 129 21 127 63 135 49 9 113 47 147 87 52 61 75 125 75 208 0 89 -19
134 -69 167 -39 27 -112 30 -199 9z m113 -126 c26 -29 18 -135 -15 -183 -23
-33 -58 -62 -66 -55 -3 4 33 215 42 246 5 17 18 15 39 -8z"/>
<path d="M328 856 c-32 -7 -60 -15 -64 -18 -3 -4 -19 -84 -35 -180 -27 -160
-83 -465 -95 -514 l-5 -21 82 22 c46 12 84 26 85 31 1 5 12 69 25 142 12 72
25 132 29 132 4 0 24 -66 45 -147 21 -82 39 -151 42 -155 5 -9 153 41 153 52
0 5 -25 67 -55 139 -30 72 -55 134 -55 138 0 5 18 21 40 36 129 91 175 309 74
347 -35 14 -197 11 -266 -4z m200 -138 c18 -15 15 -24 -23 -66 -35 -39 -119
-91 -130 -81 -9 10 24 152 38 161 15 10 97 -1 115 -14z"/>
<path d="M2252 854 c-39 -6 -73 -13 -75 -15 -2 -2 -18 -85 -36 -184 -34 -180
-94 -466 -106 -505 -6 -20 -5 -21 72 -14 43 3 81 9 84 13 4 3 14 49 24 101 9
52 39 209 66 349 28 139 49 256 47 260 -2 3 -36 1 -76 -5z"/>
<path d="M3035 859 c-55 -5 -125 -6 -157 -3 l-56 6 -4 -64 c-2 -35 1 -66 7
-70 5 -4 27 -8 48 -8 37 0 38 -1 33 -32 -28 -168 -61 -353 -82 -446 -13 -63
-24 -115 -24 -116 0 -2 39 3 87 11 88 14 103 22 103 57 0 24 56 371 73 458 11
55 16 63 37 66 64 7 67 9 79 69 6 31 11 62 11 70 0 14 -4 14 -155 2z"/>
<path d="M1104 697 l-61 -10 -17 -98 c-9 -54 -16 -103 -16 -109 0 -6 28 -10
70 -10 39 0 70 3 70 8 0 9 27 167 36 205 4 19 2 27 -8 25 -7 0 -41 -6 -74 -11z"/>
<path d="M976 284 c-10 -58 -16 -107 -14 -109 1 -1 34 2 73 9 l69 11 12 75
c21 128 24 120 -55 120 l-68 0 -17 -106z"/>
</g>
</svg>
